<svg xmlns="http://www.w3.org/2000/svg" version="1" viewBox="0 0 2560 683">
  <path d="M1419 102c8-7 14-15 23-21v231h24c1 23-1 28 2 34 9 16 2 20 5 58h31v-67l12-1v-11h22l1-16h15l1-10c7 0 14-1 20 1 8 5 13 13 20 18l11 3v83h26l1-68 11-1 2-9h20v11l11 1 1 36c14-12 14-2 12-81h19c14 2 9 21 10 40-1 9 12 11 12 21v50h25V277h32v56l15 1v23c0 5 11 14 15 16 8 4 18-3 18-12v-26h28v20c4 7 13 11 17 18l2 14h36v-47l29-1v-33h10c10-11 10-11 22-15l1-6 7-3c1-14 3-27 6-41-4-4-9-8-11-13-4-10-1-23 8-30 5-4 10-6 16-9 3-2 7 0 10 1 9-14 19-26 31-37 0-8 0-15 4-22 5-8 15-12 25-12 5-1 9 3 14 5 16-7 33-13 50-16 15-1 8-5 32-15 33 15 11 12 36 17 14 3 28 8 41 14 7 4 12-3 18-6 22 10 26 17 27 32 0 9 6 6 31 43l11-6c5 4 11 6 17 9 11 7 14 22 9 34-3 6-9 10-15 14l3 12h7l1-10h13l1 8 8 1c2 50-2 36 4 58 1 6-1 12-2 17h23c1-8-3-18 4-25 6-7 15-4 23-4l1 85h8l1-16c6-11 16-10 21-11 0-80-4-69 9-82 8-8 6-7 27-7 1 50-1 119 1 134h31v-69h28v348H0V405l9-1v-78l9-1 1-8h16l1 87h14l1-69h21v-68l11-1v-10l23 1 1 8 6 1 1 108h36v30h27l1-73 4-2 1-10 9-2 1-10h21l1 12 6 1v84h45l1-11 10-1 1-73h21c6-1 9-8 15-10h20l1 43 17 1 1-39h16v-8h26l1 13 10 1 1 15 10 1 1 39h9l1 29h24v-18h11V225l10-1 1-13h45v162h34l1-37 24-1v-69c-1-8 5-17 14-17 31-1 25 0 35 9h12l1 57 6 1 1 36h23V162c0-21-4-9 32-47l12-10v25h32v136h18c1-47-4-46 10-57 4-4 7-2 39-2v148l22 1v48h33l1-23 9-2c4-1 7-5 11-7h15c0-86-5-75 17-96 3-3 6-3 41-2l1 14 28 1 1 113c27-24 21-18 22-46l11-1v-56h9l1-10h22v10h15l1 13c3 5 9 8 12 14 2 5 1 11 3 16s7 8 10 12c11 11 5 8 41 8v-19l10-1v-8h18v28h22v-59h10v-11h22l1 11h8v99c23-19 12-19 34-22v-18h12v-88l8-1v-20l6-2v-22h21l1 22 5 1v22l9 1 1 17 8 1 1 64c0 16-1 8 28 39 8 8 6 7 20 7v-53c0-14 7-15 7-23-1-208-2-196 3-200l25-25m680 30c3 8 1 17 4 24l29 50c12-6 24-10 37-11v-46c-15-6-22-11-23-31-16 3-32 7-47 14m-674-12c-2 2-2 9 3 9 2 0 5 0 6-2 1-3 1-6-1-8l-8 1m775-1c-1 16-5 24-23 30v46c14 1 27 4 39 9 44-76 16-34 29-70-14-7-29-12-45-15m-774 20c-3 2-3 7-1 9 3 1 7 2 9-1v-6c-2-3-6-2-8-2m-744 10c-3 2-2 6 0 7l46 1c2-1 6 0 7-2 5-9-11-6-34-6h-19m744 12c-3 1-2 5-2 7 2 3 6 2 9 2 3-2 2-6 2-8-3-2-7-2-9-1m650 11c-9 1-16-4-23-9-10 10-19 21-27 33l72 42c7-11 17-20 27-28l-28-48c-6 5-13 10-21 10m214-7c-14 14-29 13-43 1l-24 42c11 8 21 17 29 28l65-38c-8-12-17-23-27-33m-1608 5c-2 2-3 6 0 7l11 1c33-1 39 1 43-2 3-9-10-6-31-6h-23m744 12c-3 2-3 10 2 9 2 0 5 1 6-1v-7c-2-2-6-1-8-1m-744 11c-3 2-2 7 1 7h50c4 0 4-7 0-7h-51m1453 17l34 60v-69c-12 1-23 4-34 9m42-10v70l36-61c-11-5-23-8-36-9m-751 2c-3 2-3 7-1 9 3 0 7 1 9-1 1-3 1-6-1-8h-7m608 8c3 19-6 34-30 35-3 12-5 25-5 38h85c1-13 4-26 10-38l-60-35m222 33c6 13 10 26 11 40h76c-1-13-3-26-6-38-20-5-27-17-24-35l-57 33m-57 7l-14 24 62-35c-7-11-16-19-27-26l-21 37M682 216c-3 1-2 6 1 7h50c4-1 4-7 0-7l-29-1c-7 0-15-1-22 1m1421 24c4 4 51 31 59 34l-34-59c-10 7-19 15-25 25M788 221c-3 4-1 9-1 14 4 3 10 2 14 1 3-4 2-9 1-14-4-3-9-2-14-1m-301 1c-3 5-1-4-2 179l2 8c6 0 4 5 4-167 0-14 1-21-4-20m10 0c-2 5-1-6-1 180 0 2 0 8 4 6 2-4 1 6 1-179 0-3 0-7-4-7m11 0c-1 7-3 180 0 186 6 2 4-1 4-94v-91l-4-1m917 0c-2 2-1 5-1 8 2 2 5 1 8 1 4 0 3-5 2-8-1-2-6-1-9-1m-743 17c-3 1-2 6 1 6l49 1c3 0 5-4 3-6-1-3-8-2-40-2-5 0-9-1-13 1m743 4c-2 3-2 10 3 10 3-1 8 1 6-8-2-3-6-2-9-2m-637 4c-3 3-2 9-1 13 4 3 10 2 14 1 3-3 2-9 1-13-4-3-9-2-14-1m1427 19l-26 16c12 2 68 1 72 1 0-13-4-26-10-37l-36 20m-126 17c1 0 61 1 69-1l-59-34c-6 11-9 23-10 35m-800-26v14h3v-14h-3m6 0v14h2v-15l-2 1m5 0v14h3v-14h-3m5 0v14h3v-14h-3m6-1v15h2v-14l-2-1m-629 7c-3 1-3 6 1 6 8 2 17 1 25 1 15-1 32 2 27-6-1-3-9-2-39-2-5 0-10-1-14 1m743 2c-2 2-2 9 3 9 2 0 5 0 6-2v-6c-2-3-6-1-9-1m928 0v10h11v-10h-11m-1766 2v8h8v-8h-8m12 0v8h8v-8h-8m12 0v8h8v-8h-8m12 0v8h8v-8h-8m-526 4c-2 3-1 6-1 9 2 3 6 2 9 2 3-2 2-6 1-9-2-3-6-2-9-2m691 2c-2 4-2 10 0 14 4 2 9 2 13 1 3-4 2-9 1-14-3-3-9-2-14-1m1378 5c-4 5-2 11-1 17l5 1v-13h12l-1-5c-5-2-10-2-15 0m-885 0v15l3-1v-14h-3m6 0v15h2v-15h-2m5 0v15h3v-15h-3m5 0v14l3 1v-15h-3m6 0v15h2v-15h-2m5 0v15h3v-15h-3m5 0v14l3 1v-15h-3m6 0v15h2v-15h-2m-732 1v8h8v-8h-8m12 0v8h8v-8h-8m12 0v8h8v-8h-8m12 0v8h8v-8h-8m1730 2v10h11v-10h-11M98 285c-3 2-2 6-2 9 2 2 6 1 9 1 3-2 2-6 1-9-2-3-6-2-8-1m1328 0c-3 1-3 7 0 9 2 0 6 1 8-2v-6c-2-3-6-2-8-1m338 0v8h8v-8h-8m-1082 2c-3 1-2 6 1 6l26 1c13-1 32 2 26-6-1-3-10-2-39-2-5 0-10-1-14 1m1799-1v11h11v-11h-11m-1894 5v8h8v-8h-8m12 0v8h8v-8h-8m12 0v8h8v-8h-8m12 0v8h8v-8h-8m1375 0c2 10 18 17 8 39-2 5 1 11 2 16 4-4 7-8 11-10l21-1c4-2 7-6 10-9h22l1 14 21-12c-5-11-9-24-10-37h-86m91 0c1 12 4 24 10 34l58-34h-68m106 0c1 4 4 7 8 8l40 23v-19h17l1-12h-66m72 0l-2 12h12v39l46 27c5-11 11-23 13-35-2-7-6-14-3-22 1-8 9-13 10-21h-76m-503 6v8h8v-8h-8m589 0v10h11v-10h-11M98 298c-3 2-2 6-2 9 3 3 7 1 10 1v-9c-2-2-6-1-8-1m817 0c-3 1-2 7 0 9 3 0 6 1 9-1 0-3 1-6-2-8h-7m13 1c0 2-1 6 2 8h7c3-2 2-5 1-8-2-3-7 0-10 0m15-1c0 3-2 7 1 9 3 0 7 1 9-1 0-3 1-6-1-8h-9m-155 2c-3 3-2 9-1 14 4 2 11 2 15 0 1-5 2-10-1-14-3-2-8-1-13 0m1338 19h13l1 18 22-38c-13 6-24 13-36 20M587 302v8h8v-8h-8m12 0v8h8v-8h-8m12 0v8h8v-8h-8m12 0v8h8v-8h-8m656 0v8h8v-8h-8m12 0v8h8v-8h-8m12 0v8h8v-8h-8m12 0v8h8v-8h-8m12 0v8h8v-8h-8m1154 0v11h11v-11h-11m-337 45c-4 5-6 11-4 17 7 5 15 6 23 8 0-31 0-16 6-29v-39l-25 43m52-42c0 18-1 11 11 33 5 0 20-2 22 16 6-6 16-12 14-21-3-3-1-2-47-28m-771 1c-2 2-2 7 0 9 3 0 7 1 9-1v-7c-2-2-6-1-9-1m-743 3c-2 1-2 3-2 5 1 4 6 2 9 3l43-1c4 1 5-6 1-7h-51m1082 0v8h8v-8h-8M96 311l1 10 8 1c3-2 2-7 1-9-2-3-7-1-10-2m819 0c-3 3-3 10 2 10 2 0 5 0 7-2v-6c-2-3-6-2-9-2m14 0c-2 2-1 5-1 8 2 3 6 2 9 1 2-2 1-5 2-8l-10-1m15 0c-3 3-2 10 3 10 3-1 8 1 6-8-2-3-6-2-9-2m1307 2v7l8 1v-8h-8m12 0v8h8v-8h-8m90 0v10h11v-10h-11m-1766 1v8h8v-8h-8m12 0v8h8v-8h-8m12 0v8h8v-8h-8m12 0v8h8v-8h-8m1332 1c-3 2-3 7 0 9 3 1 7 2 9-1v-6c-2-3-6-2-9-2m16 1c-3 1-3 7 0 8s7 1 9-1v-6c-2-3-6-2-9-1m-778 2v13h7v-13h-7m10 0v13h6v-13h-6m9 0v13h7v-13h-7m9 0v13h7v-13h-7m1260 0v11h11v-11h-11m-717 3v8h8v-8h-8M98 325c-3 2-2 6-2 9 2 2 6 1 9 1 3-2 2-6 1-9-2-3-6-2-8-1m690 0c-2 2-1 6-1 9 0 2-1 6 2 6 4 1 9 1 12-1 2-4 2-9 1-13-4-2-9-2-14-1m125 0c1 3 0 7 2 9 11 2 9-4 9-8-3-3-8-1-11-1m16-1c0 3-2 7 1 10 2 0 6 1 8-2v-6c-2-2-6-1-9-2m15 1c-2 2-2 6 0 9 3 0 7 1 9-2v-6c-2-2-6-2-9-1m610 0c-3 2-3 6-1 9 3 0 7 1 9-2v-6c-2-2-6-2-8-1m16 0c-3 1-2 5-2 7 2 3 6 2 9 2 2-2 2-5 1-8-2-3-6-2-8-1m14 0c-2 1-2 7 0 9 3 0 7 1 9-2 0-2 1-6-1-7h-8m667 0v8l8-1v-7h-8m12 0v8h8v-8h-8m-2070 1v8h8v-8h-8m12 0v8h8v-8h-8m382 0v8h8v-8h-8m12 0v8h8v-8h-8m12 0v8h8v-8h-8m12 0v8h8v-8h-8m1482 6l9-1v-5l-9 6m-1076-5v14h7v-14h-7m10 0v14h6v-14h-6m9 0v14h7v-14h-7m9 0v14h7v-14h-7m10 0v14h6v-14h-6m9 0v14h7v-14h-7m1277 2v10h11v-10h-11m-230 1c-2 2-3 7 0 9 3 0 7 1 9-1v-7c-2-2-6-1-9-1m-168 2c-3 2-3 9 2 9 2 0 5 0 7-2v-6c-2-3-6-2-9-1m16-1c-3 3-3 10 2 10 2-1 5 0 7-2 0-2 1-6-1-8h-8m-1289 2c-3 1-2 7 1 7h50c4 0 3-8-1-7h-50m1082 0v8h8v-8h-8m717 1v11h11v-11h-11m-230 3v8h8v-8h-8m12 0v8h8v-8h-8M98 338c-3 2-2 6-2 9 2 3 6 2 9 1 3-2 2-6 1-9-2-2-6-1-8-1m95 0v8h8v-8h-8m12 0v8h8v-8h-8m382 0v8h8v-8h-8m12 0v8h8v-8h-8m12 0v8h8v-8h-8m12 0v8h8v-8h-8m1450 12v30h22v-43l-22 13m-880-11v14h7v-14h-7m10 0v14h6v-14h-6m9 0v13l7 1v-14h-7m9 0v14h7v-14h-7m333 2c-3 1-2 5-2 7 2 3 6 2 9 2 3-2 2-6 1-8-2-2-5-2-8-1m16 0c-3 2-2 6-1 8 3 1 7 2 9-1v-6c-2-3-6-2-8-1m14 0c-3 2-2 10 3 9 2 0 5 1 6-2v-6c-2-2-6-2-9-1m522 0c-4 2-3 10 2 9 2 0 5 1 6-2v-6c-2-3-6-2-8-1m-1162 1c-2 2-2 7 0 9 3 0 7 1 9-1v-7c-2-2-6-1-9-1m15 0c-3 2-3 9 1 9 3 0 6 1 8-1 0-3 1-5-1-7s-5-1-8-1m14 0c-2 2-1 6 0 9h8c3-2 2-5 2-8-3-2-7-1-10-1m1014 2v16h15l-6-18-9 2m-343 1c-2 1-1 5-1 8v42c0 3 4 4 4 1v-51l-2-1-1 1m11 0c-2 1-1 2-2 46 0 3 0 8 4 7 3-4 2-49 2-50s-2-5-4-3m10-1c-2 4-1 8-1 11 1 26-2 49 5 42v-52l-4-1m99 1v7l8 1v-8h-8m581-1l-13 30c4 2 8 5 11 10l2 1v-41m8 1v10h11v-10h-11m-398 1c-3 2-3 10 2 9 2 0 5 1 7-1v-7c-2-2-6-1-9-1m16 0c-3 2-2 5-1 8 2 2 5 2 8 1s2-5 2-8c-2-2-6-1-9-1m152 0c-2 2-2 6-2 8 3 1 6 2 9 1 3-2 2-5 2-8-3-2-6-1-9-1m106 15c0 6-1 13 2 19 4 5 6 12 12 15v-47l-14 13m22-12v7l8 1v-8h-8m12 0v8h8v-8h-8m-2070 1v8h8v-8h-8m12 0v8h8v-8h-8m2276 0v11h11v-11h-11M98 352c-3 0-2 4-2 6-1 5 6 4 9 4 3-2 2-6 1-9-2-3-6-2-8-1m846 4c-2 1-2 6 0 8 3 1 7 2 9-1v-6c-2-3-6-2-9-1m15-1c-3 2-2 6-1 9 3 1 7 2 10-1 0-2 1-6-1-8h-8m15 0c-3 2-3 7-1 9 3 1 7 1 9-1v-6c-2-3-6-2-8-2m580 1c-3 2-3 9 2 9 2 0 5 0 6-2v-6c-2-3-6-2-8-1m16-1c-3 2-2 6-2 8 2 2 5 2 8 1 4 0 3-5 2-7-2-3-6-2-8-2m14 0c-2 2-1 6-1 8 2 2 5 2 8 1 3 0 2-5 2-7-2-3-6-2-9-2m180 2v8h8v-8h-8m342 0c-3 2-3 7-1 9 3 0 7 1 9-2v-6c-2-3-6-2-8-1m-151 3c-3 1-2 5-1 7 2 3 6 2 9 1 2-2 1-5 1-7-2-3-6-2-9-1m16 0c-3 2-3 9 2 9 4-1 8 1 7-8-2-3-6-2-9-1m-1778 1v7h8v-7h-8m12 0v7h8v-7h-8m1918 0c-3 2-3 10 2 9 2 0 5 1 7-2v-6c-2-2-6-2-9-1m128 0v8h8v-8h-8m12 0v8h8v-8h-8m90 0v10h11v-10h-11m-74 2v12h12v-12h-12m17 0v42c9-8 16-19 23-29l-23-13M98 365c-3 2-3 7 0 10 2 0 6 1 8-1v-8c-2-2-6-2-8-1m846 4c-2 1-3 8 1 9 3 0 6 1 8-2v-6c-2-2-6-2-9-1m14-1l-1 10c4-1 8 1 11-2v-6c-3-2-7-1-10-2m16 1c-3 1-2 4-2 6 0 4 5 3 8 3 4-1 3-5 2-8-2-2-6-2-8-1m580 0c-3 2-3 10 2 9 3 0 9 2 6-8-2-3-6-2-8-1m16 0c-3 2-3 9 2 9 2 0 5 0 6-2v-6c-2-3-6-2-8-1m14 0c-2 1-1 5-1 7 1 3 5 2 8 2 4-1 2-5 2-8-2-2-6-2-9-1m180 0v8h8v-8h-8m342 2c-3 2-3 7 0 9 2 1 6 2 8-1v-6c-2-3-6-2-8-2m33 0v9c24 0 20 1 25-2l-25-7m-1946 2v7h8v-7h-8m12 0v7h8v-7h-8m1750 0c-3 1-2 5-1 7 1 3 5 2 7 2 4-1 3-5 3-8-2-2-6-2-9-1m16 0c-3 1-2 5-1 7 1 3 5 2 7 2 4 0 3-5 3-8-2-2-6-2-9-1m280 0v8h8v-8h-8m12 0v7l8 1v-8h-8m90 4v10h11v-10h-11m-589 4v8h8v-8h-8m515 0v12h12v-12h-12m-726 1c-2 2-2 10 3 9 2 0 5 1 6-1v-7c-2-2-6-1-9-1m17 0c-3 2-3 7 0 9 2 0 6 1 8-1v-7c-2-2-6-1-8-1m14 0c-2 2-2 7 0 9 3 0 7 1 9-1v-8h-9m-1391 3v7h8v-7h-8m12 0v7h8v-7h-8m2046 0v8h8v-8h-8m12 0v8h8v-8h-8m-308 1c-3 2-3 7 0 9 3 0 7 1 9-1 0-3 1-6-1-8h-8m16 0c-3 2-2 7 0 9 3 0 6 1 9-1v-7c-2-2-6-1-9-1m382 7v10h11v-10h-11m-799 3c-3 1-3 6 0 8 2 1 6 1 8-1 1-2 1-6-1-8l-7 1m16 0c-3 1-2 5-2 7 2 3 6 2 9 1 3-2 1-6 1-9l-8 1m13-1c0 3-1 7 1 9 4 1 11 1 9-5 1-6-7-3-10-4m-1390 2v7h8v-7h-8m12 0v7h8v-7h-8z"/>
</svg>
